# xmcd
#
# Track frame offsets: 
#        150
#        17845
#        37170
#        61537
#        82937
#        99535
#        116895
#        136245
#        151815
#        173685
#        191097
#        211607
#        237020
#
# Disc length: 3462 seconds
#
# Revision: 2
# Processed by: cddbd v1.5.2PL0 Copyright (c) Steve Scherf et al.
# Submitted via: ExactAudioCopyFreeDBPlugin 1.0
#
DISCID=9d0d840d
DTITLE=姫神 - スーパーベスト
DYEAR=1900
DGENRE=New Age
TTITLE0=奥の細道
TTITLE1=紫野
TTITLE2=峠
TTITLE3=綾織
TTITLE4=七時雨
TTITLE5=花野
TTITLE6=社
TTITLE7=桐の花むらさきに燃え
TTITLE8=十三の砂山
TTITLE9=青空
TTITLE10=星が降る
TTITLE11=海道を行く
TTITLE12=大地炎ゆ
EXTD=
EXTT0=
EXTT1=
EXTT2=
EXTT3=
EXTT4=
EXTT5=
EXTT6=
EXTT7=
EXTT8=
EXTT9=
EXTT10=
EXTT11=
EXTT12=
PLAYORDER=
